/* XPM */
static char * button_xpm[] = {
"34 34 3 1",
" 	c #005957",
".	c #00FFF7",
"+	c #097C78",
"                                  ",
"                                  ",
"                                  ",
"                                  ",
"                                  ",
"                                  ",
"              ......              ",
"           +..........+           ",
"          ..............          ",
"         ................         ",
"        ..................        ",
"       +..................+       ",
"       ....................       ",
"       ....................       ",
"      ......................      ",
"      ......................      ",
"      ......................      ",
"      ......................      ",
"      ......................      ",
"      ......................      ",
"       ....................       ",
"       ....................       ",
"       +..................+       ",
"        ..................        ",
"         ................         ",
"          ..............          ",
"           +..........+           ",
"              ......              ",
"                                  ",
"                                  ",
"                                  ",
"                                  ",
"                                  ",
"                                  "};
