/* XPM */
static char * Close_pressed_xpm[] = {
"21 21 5 1",
" 	c #00FFF7",
".	c #090102",
"+	c #000000",
"@	c #005957",
"#	c #170102",
"                     ",
"                     ",
".                   .",
"+++               +++",
"+++               +++",
"+++.             ++++",
"++++             ++++",
"++++             ++++",
"++++      @      ++++",
"++++    @@@@@    ++++",
"++++    @@@@@    ++++",
"++++   @@@@@@@   ++++",
"++++    @@@@@    ++++",
"++++    @@@@@    ++++",
"++++      @      ++++",
"++++             ++++",
"++++             ++++",
"++++             ++++",
"+++++           +++++",
"+++++#         #+++++",
"+++++++       +++++++"};
