/* XPM */
static char * Maximize_xpm[] = {
"21 21 2 1",
" 	c #004F4E",
".	c #00FFF7",
"                     ",
"                     ",
"                     ",
"                     ",
"                     ",
"                     ",
"                     ",
"                     ",
"                     ",
"        .....        ",
"        .   .        ",
"        .   .        ",
"        .   .        ",
"        .....        ",
"                     ",
"                     ",
"                     ",
"                     ",
"                     ",
"                     ",
"                     "};
