/* XPM */
static char * Maximize_pressed_xpm[] = {
"21 21 2 1",
" 	c #00FFF7",
".	c #000000",
"                     ",
"                     ",
".....................",
".....................",
".....................",
".....................",
".....................",
".....................",
"........     ........",
".......       .......",
".......       .......",
".......       .......",
".......       .......",
".......       .......",
"........     ........",
".....................",
".....................",
".....................",
".....................",
".....................",
"....................."};
